# xmcd
#
# Track frame offsets:
#	150
#	14912
#	31595
#	46869
#	62182
#	76536
#	94072
#	109375
#	128621
#	144300
#	164444
#	176240
#	192401
#	213847
#	225983
#	242427
#	254537
#	269825
#
# Disc length: 3804 seconds
#
# Revision: 1
# Processed by: cddbd v1.5.2PL0 Copyright (c) Steve Scherf et al.
# Submitted via: audiograbber 1.83.01
#
DISCID=f50eda12
DTITLE=M T M - M T M 020
DYEAR=2006
DGENRE=Country
TTITLE0=Alcohol Abuse  - Pete Schlegel 
TTITLE1=Amarillo By Morning - John Arthur Martinez
TTITLE2=Lesson In Loniness  - Tommy Townsend
TTITLE3=Love Happens  - Aimee Pettersen
TTITLE4=A Kiss Away  - Johnny Bulford
TTITLE5=Garage For Sale  - Jeff Taylor
TTITLE6=Just Walk Away  - Rob Russell
TTITLE7=I´m Leavin  - Pete and The Rowers
TTITLE8=What You Don´t Let  - Chris Gilburg
TTITLE9=Whiskey Watin Chains  - Ray William Roldan
TTITLE10=Too Much Lust - Ray William Roldan
TTITLE11=Just An Old Memory  - Johnny Dietrich
TTITLE12=Sow Wonder  - Cissy Mccaa
TTITLE13=Christmas In The Country  - Codie Prevost
TTITLE14=The W In Christmas Love  - John Forster
TTITLE15=Santa Isen´t Santa Anymore  - Ronnie Caywood
TTITLE16=For Christmas  - Rick Holdin
TTITLE17=Angels We Have Heard On High  - Sylvia
EXTD=
EXTT0=
EXTT1=
EXTT2=
EXTT3=
EXTT4=
EXTT5=
EXTT6=
EXTT7=
EXTT8=
EXTT9=
EXTT10=
EXTT11=
EXTT12=
EXTT13=
EXTT14=
EXTT15=
EXTT16=
EXTT17=
PLAYORDER=
